<?xml version="1.0" encoding="UTF-8"?>
<svg id="Layer_2" data-name="Layer 2" xmlns="http://www.w3.org/2000/svg" viewBox="0 0 46.61 47.38">
  <defs>
    <style>
      .cls-1 {
        fill: #195797;
      }

      .cls-2 {
        fill: #044c93;
      }

      .cls-3 {
        fill: #7bb853;
      }
    </style>
  </defs>
  <g id="Layer_1-2" data-name="Layer 1">
    <path class="cls-1" d="M36.81,8.16l1.35-.14c4.74,4.75,8.28,9.18,8.45,16.38.11,4.75-2.64,11.23-5.37,15.06,1.9.69,4.74,1.48,3.74,4.07-.4,1.04-1.46,1.81-2.48,2.21-4.42,1.54-12.24,1.88-16.9,1.48-.84-4.63-1.75-9.68-1.45-14.37.19-3.08,2.04-4.89,4.82-2.65.5.4.97.84,1.4,1.31,5.87-7.33,10.48-13.66,6.44-23.35Z"/>
    <path class="cls-3" d="M16.88.02c6.79-.48,12.71,6.64,15.39,12.17-2.76,2.79-5.36,5.65-8.25,8.38-1.79,1.69-5.56,3.93-6.69.16-.23-.78-.09-1.8-.7-2.38-7.55-.59-10.34-.28-16.63,3.71C1.87,12.16,4.76,7.55,14.88,5.07c1.88-.46.14-2.72,2-5.05Z"/>
    <path class="cls-2" d="M35.22,5.2l2.94,2.82-1.35.14-1.59-2.97Z"/>
  </g>
</svg>