<?xml version="1.0" encoding="UTF-8"?>
<svg id="Layer_2" data-name="Layer 2" xmlns="http://www.w3.org/2000/svg" viewBox="0 0 965.3 396.75">
  <defs>
    <style>
      .cls-1 {
        fill: #215592;
      }

      .cls-2 {
        fill: #7cb853;
      }
    </style>
  </defs>
  <g id="Layer_1-2" data-name="Layer 1">
    <path class="cls-1" d="M897.24,36.08c.35.17.7.33,1.05.5,26.76,20.21,55.92,53.92,63.39,85.7,11.44,48.68-5.89,84.84-29.01,124.45,14.03,2.15,21.18,5.67,24.37,20.04-3.9,15.36-13.5,18.96-28.1,21.63-14.12,2.59-28.38,5-42.71,6.12-11.93,1.52-38.9.88-50.87-.09-1.8-16.98-7.24-36.94-8.47-54.94-.99-15.67-4.82-40.74,5.55-54.08,9.43-12.13,25.48,3.07,32.67,9.72,28.89-30.91,54.35-68.45,48.82-112.78-2.2-17.67-8.48-30.88-16.69-46.28Z"/>
    <path class="cls-2" d="M786.3.04c12.12-.47,19.21,3.01,29.49,8.62,30.43,16.61,47.11,36.82,61.36,67.87-12.08,11.72-22.49,23.21-35.49,36.43-11.18,11.37-33.67,40.03-52.8,25.02-5.13-4.03-6.38-15.83-6.34-22.55l-10.73-1.17c-25.21-1.48-51.65-1.96-74.34,10.73-6.62,3.7-13.84,9.1-20.08,13.56,4.51-62.57,37.72-97.01,98.87-107.72-2.71-11.82-4.7-27.15,10.07-30.79Z"/>
    <path class="cls-1" d="M673.9,162.38c2.12,2.16,13.33,23.64,16.02,28.34,20.31-18.4,40.8-22.55,67.32-24.92,4.11,3.13,8.05,6.49,11.8,10.06,27.04,25.68,32.27,79.84,5.89,108.72-16.76,18.35-51.27,16.45-74.54,16.82,3.64-13.66,5.92-18.56,16.54-28.25,13.77-1.11,21.08,1.81,31.56-8.35,4.06-6.27,5.81-13.23,6.17-20.62.85-16.31-4.94-32.26-16.06-44.22-8.06.92-14.78,2.83-20.74,8.65-18.03,17.62-22.1,85.49-31.34,91.56-9.05,5.94-29.24,2.43-39.16.36,6.75-24.25,11.04-53.51,20.49-76.63-6.39-9.05-15.02-20.81-20.16-30.36,5.02-13.23,15.11-22.86,26.22-31.16Z"/>
    <path class="cls-2" d="M94.47,165.73c3.14-.28,2.97-.74,5.47.36,2.42,11.08,3.43,27.06,5.45,39.11,4.07,24.21,8.87,42.97,16.25,66.15,15.56-3.93,30.73-9.3,36.05-25.86,7-21.78,13.13-59.52-23.01-42.25-9.78-5.08-16.66-9.23-25.62-15.61,19.7-25.19,64.53-28.71,84.09-1.72,4.2,7,6.6,13.65,8.12,21.7,3.87,19.62-.35,39.97-11.7,56.42-21.88,32.03-58.09,36.35-93.46,43.24-4.24-7.56-7.8-16.65-11.17-24.68-15.5-36.98-19.96-71.16-22.65-110.73,10.5-3.06,21.28-5.11,32.17-6.13Z"/>
    <path class="cls-1" d="M365.52,162.45c30.35,4.95,44.38,24.43,47,54.98.92,10.77-.84,22.13.17,33.01,1.35,14.54,4.44,29.02,8.59,43-4.27,2.63-8.83,4.75-13.59,6.31-5.72,1.87-15.78,4.52-21.23,1.73-2.98-2.98-5.14-18.45-6.53-24.05-5.19,6.44-9.14,10.49-15.63,15.63-10.62,8.13-20.23,10.85-32.77,14.28,3.06-15.98,5.37-28.51,13.08-42.97,12.74-1.82,20.45-6.33,30.48-14.26.38-34.5,7.68-49.14-33.05-58.26,5.85-10.42,13.26-22.66,23.49-29.4Z"/>
    <path class="cls-1" d="M523.36,159.36c1.59.68,6.94,4.07,10.02,5.47,18,8.18,29.45,6.4,48.59,5.39-2.57,6.39-7.91,16.71-12.86,21.52-6.41,6.22-10.44,6.62-18.51,6.73-4.63,33.45-1.82,51.87,13.08,81.76-4.93,7.35-7.76,9.6-14.71,15.31-5.64,4.16-11.46,7.58-17.65,10.83-18.79-36.2-27.66-67.45-16.62-108.05l-26.02.1c10.19-14.64,21.08-27.48,34.67-39.06Z"/>
    <path class="cls-2" d="M238.29,163.09c27.12,7.15,44.31,34.73,44.2,61.78-.06,15.87.23,31.31.42,47.56.11,9.42-1.44,21.47-11.46,26.71-13.75,4.83-39.68,3.74-54.14,4.1-4.06.29-8.24.48-12.31.72,4.47-12.03,8.9-23.97,20.31-30.99l21.61.1c-.34-9.9-.5-19.8-.48-29.7.11-28.89,3.44-45.47-31.04-51.23,5.79-10.89,13.1-21.41,22.9-29.05Z"/>
    <path class="cls-1" d="M447.66,167.87c11.38-1.11,18.32-.19,29.32,2.38v131.33c-3.18.94-6.16,1.48-9.41,2.13-11.96,1.67-18.86.88-30.43-2.07.39-13.43-.06-28.91-.03-42.52l-.02-89.05c3.64-.95,6.89-1.52,10.57-2.2Z"/>
    <path class="cls-2" d="M10.68,167.89c9.75-1.23,18.86.51,28.34,2.32l-.05,131.56c-2.71.74-5.98,1.34-8.76,1.92-12.27,1.38-18.21.93-30.2-2.39v-131.5c3.68-.92,6.95-1.34,10.68-1.9Z"/>
    <path class="cls-1" d="M608.45,167.94c8.23-.36,14.14.27,22.25,1.54-.03,18.08.56,36.28.36,54.3-6.95,8.07-11.99,12.46-21.02,17.8-5.79,3.17-11.91,5.48-18.17,7.52l.2-78.87c6.45-1.36,9.75-1.77,16.38-2.29Z"/>
    <path class="cls-1" d="M407.78,352.49c-8.6.81-13.3,1.5-21.38,4.66l-.03,38.39,22.36.02h19.78c.01-19.04,6.57-45.69-20.73-43.08ZM410.91,386.35c-.51,0-.98-.07-1.41-.19-.18.02-.37.04-.57.04-.28,0-.54-.04-.8-.07-.93.29-2.01.41-2.78-.19-.33.07-.67.12-1.04.12-.61,0-1.16-.1-1.66-.26-.14.13-.29.24-.47.27-3.52.72-3.38-5.37-3.2-7.47.02-.2.06-.4.08-.59-.21-.86-.11-2.32-.11-2.96,0-1.28.33-2.71.46-3.97-.06-2.85-.88-6.93,1.63-8.63,1.15-.78,2.77-.66,4.08-.63,1.48.04,2.98-.25,4.41.18,2.31.09,3.76,1.5,4.32,3.23.74.78,1.19,1.79,1.33,2.86,0,.01,0,.02.01.03.25.55.4,1.15.45,1.77.67,3.54.34,7.54.06,10.68,0,.04,0,.1-.01.16.3,2.69-1.28,5.63-4.77,5.63Z"/>
    <path class="cls-1" d="M605.33,370.76c-2.5-20.91-28.02-18.08-43.94-17.77-.69.01-1.24.56-1.26,1.25-.6,18.88-3.8,42.31,23.16,42.21,6.48-.03,11.47-2.31,16.4-6.38.08-.07.16-.15.22-.23,4.9-6.32,6.39-10.97,5.42-19.07ZM591.23,374.27c-.2,4.14-1.02,8.98-4.01,11.63-1.55,1.38-3.51,2.37-5.47,2.57-.13.17-.28.29-.43.23-.53-.2-.96.07-1.5.02-.51-.05-1-.24-1.46-.45-1.09-.48-1.73-1.26-2.44-2.19-.23-.31-.41-.65-.54-1.02-1.34-2.18-1.86-4.9-2.22-7.36-.06-.39-.09-.78-.12-1.18-.2-.87-.31-2.01-.35-2.36-.08-.67-.26-2.41-.25-3.56,0-1.28.04-2.56.24-3.86,0,0,0-.01,0-.02-.22-.88-.21-1.69-.04-2.41,0-.13.01-.25.02-.38.06-.81.2-1.95.6-2.69.2-.37.5-.74.91-.51.26.04.53-.04.8-.02.18.01.36.06.52.13.46-.17.96-.27,1.54-.27.76-.11,1.54-.06,2.26.16,2.9.21,5.82.45,8.18,2.37,2.12,1.72,2.77,3.7,3.03,5.86.28.45.5.96.62,1.57.25,1.26.36,2.54.11,3.74Z"/>
    <path class="cls-1" d="M725,353.28c4.05-.17,8.93-.04,13.06-.03-.01,5.13.01,10.25.07,15.37.06,7.71-.25,15.29-6.25,20.74-10.49,9.57-29.22,9.04-39.15-1.09-8.06-8.21-5.56-24.16-5.32-35.09l12.23.04c.01,7.1.07,14.2.18,21.31,8.39-5.69,6.26-11.64,5.98-21.08l12.9-.23c.04,25.71,1.51,15.82-16.68,28.49,1.38,4.56,4.18,5.93,8.77,6.17,3.9.21,7.7-1.23,10.48-3.96,4.06-3.94,3.79-8.08,3.91-13.33l-.17-17.31Z"/>
    <path class="cls-1" d="M276.52,353.26c2.78-.06,9.78-.64,11.71.7l.45,4.38c1.54.37,7.91-5.44,14.75-5.72,19.92-.83,15.73,28.2,15.77,42.96l-23.16.04c-.02-2.71-.48-6.69.89-8.79,2.12-1.37,4.69-1,7.32-.98l.99-.21c3.78-5.6.18-39.7-16.47-16.23-.06,8.69-.07,17.38-.01,26.07l-13.2.03c.1-10.94-.18-29.49,0-41.13.32-.37.64-.74.96-1.11Z"/>
    <path class="cls-1" d="M657.09,352.5c24.28-.16,20.2,12.23,20.27,31.61.01,3.79-.1,7.7-.16,11.5l-12.75.19c-.11-8.48.81-17.22.3-25.53-.63-10.19-9.57-8.63-16.29-7.56-.44,21.38,5.2,34.57-22.73,33.3-.15-3.53-.78-6.6,1.17-9.25,8.35-.24,9.06-4.04,9.11-11.72.04-5.92-.18-11.9-.32-17.82,8.32-3.39,12.42-3.95,21.39-4.72Z"/>
    <path class="cls-1" d="M101.14,353.29l7.31-.08,11.27,16.19c2.27-4.54,4.52-10.85,6.4-15.72,4.53-.06,9.17,0,13.71,0-3.34,6.93-7.39,19.1-11.53,25,3.78,5.38,8.65,11.44,12.69,16.73l-13.55.18c-2.48-1.04-13.41-16.97-15.94-20.41-2.75,6.75-5.44,13.52-8.08,20.32l-13.7.02c4.48-9.74,8.83-19.93,13.18-29.76-2.4-3.36-7.4-8.3-7.6-11.62,2.08-1.36,2.85-.83,5.83-.86Z"/>
    <path class="cls-1" d="M325.88,339.75l13.39-.02-.04,13.45,22.68-.08c-3.96,13-9.22,27.07-13.78,39.97-.51,1.72-.25,1.11-1.39,2.58-3.65-.01-8.14-2.36-11.8-3.83,3.34-9.79,6.85-19.52,10.52-29.19l-19.45.03-.13-22.9Z"/>
    <path class="cls-1" d="M503.46,352.42c39.9.1,28.87,58.83-12.78,40.93-.77-3.26-.09-6.42.31-9.8,5.12,2.38,8.8,4.26,14.6,2.9,7.11-1.67,10.53-9.06,8.29-15.75-.94-2.91-3.02-5.32-5.76-6.68-5.74-2.83-10.86-1.01-16.37,1.05l-.08-9.97c5-1.63,6.58-1.98,11.79-2.68Z"/>
    <path class="cls-1" d="M171.99,352.45c25.85-.44,18.22,23.78,19.3,43.02h-13.12s-.79-9.14-.79-9.14c-2.22,4.55-3.09,6.19-6.85,9.59-6.34.62-6.88.85-11.8-3.43l3.13-11.05c13.63,6.33,19.17-5.13,14.82-17.14-1.51-4.19-9.65,2.25-14.21-4.49-.16-5.88,4.99-7.07,9.51-7.36Z"/>
    <path class="cls-1" d="M15.49,353.08c2.07-.18,4.14-.32,6.21-.4,24.77-1.01,18.05,25.31,17.77,43.25-3.82.13-8.96.62-12.53-.26l-.54-1.54c.41-16.77,4.58-47.52-21.99-25.05l.12-12.04c4.36-1.95,6.38-2.63,10.96-3.96Z"/>
    <path class="cls-1" d="M761.23,352.48c24.16.79,17.48,24.8,17.43,43.43l-13.23.12.02-7.77c.4-15.89,1.55-39.52-21.83-19.83l.04-11.36c7.14-3.23,9.8-3.95,17.57-4.59Z"/>
    <path class="cls-1" d="M463.74,352.47c23.1.57,19.05,12,19.28,30.82.05,4.02-.08,8.17-.12,12.21l-16.36-.04-8.78.05.12-9.61,12.02-.16c-.21-7.09,2.16-19.3-3.58-23.57-5.56-.92-7.25-2.8-4.96-9.04l2.38-.66Z"/>
    <path class="cls-1" d="M220.34,353.53h28.06c.3,8.46.36,5.79-4.51,10.7-4.27,4.31-2.83,20.86-2.78,26.98.08,1.93.21,1.88-.61,3.59-3.42,1.42-8.5.78-12.49.68,0-9.14-.73-23.87,1.81-32.3-1.88-1.03-6.79-.59-9.32-.57l-.17-9.08Z"/>
    <path class="cls-1" d="M536.83,353.04h12.68s.02,42.41.02,42.41h-12.59c-.4-13.89-.14-28.47-.1-42.41Z"/>
    <path class="cls-1" d="M202.56,353.28l10.97-.07c.02,6.47.48,37.88-.35,41.73l-1.21.57-11.13-.06c.04-8.01-.53-34.83.41-41.31l1.31-.85Z"/>
    <path class="cls-1" d="M71.8,353.57l12.68-.08.02,42.02-12.74-.07c.4-13.65.19-28.21.04-41.88Z"/>
    <path class="cls-1" d="M438.36,353.12l12.99-.05.05,21.59-4.57,3.51c-2.71,1.87-5.78,3.79-8.57,5.6-.12-10.22-.09-20.43.1-30.65Z"/>
    <path class="cls-1" d="M49.15,353.53l13.28-.04v21.79s-3.71,2.46-3.71,2.46c-3.39,2.24-5.99,3.7-9.51,5.62l-.06-29.83Z"/>
    <path class="cls-1" d="M253.28,353.43l13,.07-.13,21.53-5.61,3.94-7.29,4.65c.07-10.06.08-20.13.04-30.19Z"/>
  </g>
</svg>